# xmcd
#
# Track frame offsets: 
#        150
#        43590
#        70310
#        88077
#        119867
#        163957
#
# Disc length: 2333 seconds
#
# Revision: 2
# Processed by: cddbd v1.5.2PL0 Copyright (c) Steve Scherf et al.
# Submitted via: ExactAudioCopy v0.99pb5
#
DISCID=58091b06
DTITLE=Bingo Miki and Inner Galaxy Orchestra - Back to the Sea - XRCD2
DTITLE=4 TBM
DYEAR=1978
DGENRE=Big Band
TTITLE0=Back to the Sea (prologue)
TTITLE1=Swingin' on the Horizon
TTITLE2=When Waves Sing
TTITLE3=Natural Flow
TTITLE4=Merman's Dance
TTITLE5=Back to the Sea (epilogue)
EXTD=YEAR: 1978
EXTT0=
EXTT1=
EXTT2=
EXTT3=
EXTT4=
EXTT5=
PLAYORDER=
